<svg id="Layer_1" data-name="Layer 1" xmlns="http://www.w3.org/2000/svg" viewBox="0 0 230.82 239.72"><defs><style>.cls-1{fill:#55c57a;}.cls-2{fill:#7ed56f;}.cls-3{fill:#28b485;}</style></defs><title>bird-right</title><polygon class="cls-1" points="230.82 38.79 144.34 127.81 197.22 41.39 230.82 38.79"/><polygon class="cls-1" points="222.55 0 197.22 41.39 144.34 127.81 125.26 34.34 222.55 0"/><polygon class="cls-2" points="144.34 127.81 199.02 239.72 183.13 233.15 183.13 233.14 162.14 224.46 159.34 209.25 144.34 127.81"/><polygon class="cls-3" points="183.13 233.15 183.13 239.72 149.03 226.37 149.03 205.39 159.34 209.25 162.14 224.46 183.13 233.14 183.13 233.15"/><polygon class="cls-1" points="144.34 127.81 159.34 209.25 149.03 205.39 47.05 167.23 144.34 127.81"/><polygon class="cls-2" points="125.26 34.34 144.34 127.81 47.05 167.23 76.3 119.75 125.26 34.34"/><polygon class="cls-3" points="76.3 119.75 47.05 167.23 34.97 142.43 26.7 119.75 76.3 119.75"/><polygon class="cls-2" points="26.7 119.75 34.97 142.43 0 153.24 26.7 119.75"/></svg>