<?xml version="1.0" encoding="utf-8"?>
<!-- Generator: Adobe Illustrator 21.0.0, SVG Export Plug-In . SVG Version: 6.00 Build 0)  -->
<svg version="1.1" id="Layer_1" xmlns="http://www.w3.org/2000/svg" xmlns:xlink="http://www.w3.org/1999/xlink" x="0px" y="0px"
	 viewBox="0 0 6242.8 1622.2" style="enable-background:new 0 0 6242.8 1622.2;" xml:space="preserve">
<style type="text/css">
	.st0{fill:#55C57A;stroke:#55C57A;stroke-width:14;stroke-miterlimit:10;}
	.st1{fill:#28B485;}
	.st2{fill:#55C57A;}
	.st3{fill:none;stroke:#55C57A;stroke-width:14;stroke-miterlimit:10;}
</style>
<line class="st0" x1="745.8" y1="797.7" x2="993.5" y2="797.7"/>
<path class="st1" d="M827.6,634.9c-28.9,6.5-55.9,29.6-69.4,63.1c-13.5,33.5-10,68.8,6.4,93.6c28.9-6.5,55.9-29.6,69.4-63.1
	C847.4,695,843.9,659.6,827.6,634.9z"/>
<path class="st2" d="M764.4,803.8c-16.3,24.8-19.7,60.1-6.2,93.6s40.5,56.5,69.5,63c16.3-24.8,19.7-60.1,6.2-93.6
	S793.3,810.3,764.4,803.8z"/>
<path class="st1" d="M653.4,634.9c-28.9,6.5-55.9,29.6-69.4,63.1c-13.5,33.5-10,68.8,6.4,93.6c28.9-6.5,55.9-29.6,69.4-63.1
	C673.2,695,669.7,659.6,653.4,634.9z"/>
<path class="st2" d="M590.2,803.8c-16.3,24.8-19.7,60.1-6.2,93.6s40.5,56.5,69.5,63c16.3-24.8,19.7-60.1,6.2-93.6
	S619.2,810.3,590.2,803.8z"/>
<path class="st1" d="M528.1,640.9c-29.6,2.4-59.5,21.5-77.5,52.8s-19.5,66.8-6.7,93.6c29.6-2.4,59.5-21.5,77.5-52.8
	C539.3,703.2,540.8,667.7,528.1,640.9z"/>
<path class="st2" d="M442,799.4c-19.6,22.3-27.9,56.8-19.2,91.8c8.7,35,32.3,61.6,60,72.1c19.6-22.3,27.9-56.8,19.2-91.8
	S469.7,809.8,442,799.4z"/>
<path class="st1" d="M404.5,604.5c-29.4-4-62.8,8.1-87.1,34.8s-33.5,61-26.8,89.9c29.4,4,62.8-8.1,87.1-34.8
	S411.2,633.4,404.5,604.5z"/>
<path class="st2" d="M286.2,740.5c-24,17.5-39.6,49.4-38.6,85.5c0.9,36.1,18.2,67.1,43,83.4c24-17.5,39.6-49.4,38.6-85.5
	S311,756.8,286.2,740.5z"/>
<path class="st1" d="M328.1,486.7c-26.2-13.9-61.7-14-93.8,2.6c-32.1,16.6-52.5,45.7-56.2,75.1c26.2,13.9,61.7,14,93.8-2.6
	C304,545.2,324.4,516.1,328.1,486.7z"/>
<path class="st2" d="M170.1,573.6c-28.5,8.1-54.2,32.7-65.8,66.9c-11.6,34.2-6.1,69.3,11.6,93.1c28.5-8.1,54.2-32.7,65.8-66.9
	C193.2,632.5,187.8,597.4,170.1,573.6z"/>
<path class="st1" d="M328.2,385.3c-16.1-24.9-47.1-42.3-83.2-43.4s-68.1,14.4-85.7,38.2c16.1,24.9,47.1,42.3,83.2,43.4
	C278.7,424.7,310.6,409.2,328.2,385.3z"/>
<path class="st2" d="M147.9,384.3c-28.9-6.8-63.3,2.2-90,26.4c-26.8,24.2-39.1,57.5-35.2,86.9c28.9,6.8,63.3-2.2,90-26.4
	C139.5,447,151.8,413.7,147.9,384.3z"/>
<path class="st1" d="M324.3,242c-10.1-27.9-36.3-51.8-71.2-61.1c-34.9-9.2-69.5-1.4-92.1,17.9c10.1,27.9,36.3,51.8,71.2,61.1
	S301.8,261.3,324.3,242z"/>
<path class="st2" d="M148.9,200.2c-26.6-13.1-62.1-12.2-93.6,5.4S4.2,252.9,1.3,282.4c26.6,13.1,62.1,12.2,93.6-5.4
	S146,229.8,148.9,200.2z"/>
<path class="st1" d="M324,69.5c-9.3-28.2-34.8-52.8-69.4-63.1S185.1,3.1,162,21.7c9.3,28.2,34.8,52.8,69.4,63.1S300.9,88.1,324,69.5
	z"/>
<path class="st2" d="M149.8,22.8C123.6,8.9,88.1,8.9,56.1,25.5S3.7,71.3,0,100.7c26.2,13.9,61.7,13.9,93.8-2.7
	S146.1,52.2,149.8,22.8z"/>
<path class="st1" d="M998.5,634.9c-28.9,6.5-55.9,29.6-69.4,63.1c-13.5,33.5-10,68.8,6.4,93.6c28.9-6.5,55.9-29.6,69.4-63.1
	S1014.8,659.6,998.5,634.9z"/>
<path class="st2" d="M935.3,803.8c-16.3,24.8-19.7,60.1-6.2,93.6s40.5,56.5,69.5,63c16.3-24.8,19.7-60.1,6.2-93.6
	C991.3,833.4,964.3,810.3,935.3,803.8z"/>
<line class="st0" x1="937.5" y1="797.7" x2="1185.3" y2="797.7"/>
<path class="st1" d="M1190.2,634.9c-28.9,6.5-55.9,29.6-69.4,63.1c-13.5,33.5-10,68.8,6.4,93.6c28.9-6.5,55.9-29.6,69.4-63.1
	C1210,695,1206.6,659.6,1190.2,634.9z"/>
<path class="st2" d="M1127.1,803.8c-16.3,24.8-19.7,60.1-6.2,93.6c13.5,33.5,40.5,56.5,69.5,63c16.3-24.8,19.7-60.1,6.2-93.6
	C1183,833.4,1156,810.3,1127.1,803.8z"/>
<line class="st0" x1="1129.4" y1="797.7" x2="1377.2" y2="797.7"/>
<line class="st0" x1="621.9" y1="797.7" x2="869.6" y2="797.7"/>
<path class="st1" d="M1382.1,634.9c-28.9,6.5-55.9,29.6-69.4,63.1c-13.5,33.5-10,68.8,6.4,93.6c28.9-6.5,55.9-29.6,69.4-63.1
	C1402,695,1398.5,659.7,1382.1,634.9z"/>
<path class="st2" d="M1319,803.8c-16.3,24.8-19.7,60.1-6.2,93.6c13.5,33.5,40.5,56.5,69.5,63c16.3-24.8,19.7-60.1,6.2-93.6
	C1374.9,833.4,1347.9,810.3,1319,803.8z"/>
<line class="st0" x1="1337.8" y1="797.7" x2="1585.5" y2="797.7"/>
<path class="st1" d="M1590.5,634.9c-28.9,6.5-55.9,29.6-69.4,63.1c-13.5,33.5-10,68.8,6.4,93.6c28.9-6.5,55.9-29.6,69.4-63.1
	C1610.3,695,1606.8,659.7,1590.5,634.9z"/>
<path class="st2" d="M1527.3,803.8c-16.3,24.8-19.7,60.1-6.2,93.6c13.5,33.5,40.5,56.5,69.5,63c16.3-24.8,19.7-60.1,6.2-93.6
	C1583.3,833.4,1556.3,810.3,1527.3,803.8z"/>
<line class="st0" x1="1544.5" y1="797.7" x2="1792.3" y2="797.7"/>
<path class="st1" d="M1797.2,634.9c-28.9,6.5-55.9,29.6-69.4,63.1c-13.5,33.5-10,68.8,6.4,93.6c28.9-6.5,55.9-29.6,69.4-63.1
	S1813.6,659.6,1797.2,634.9z"/>
<path class="st2" d="M1734.1,803.8c-16.3,24.8-19.7,60.1-6.2,93.6c13.5,33.5,40.5,56.5,69.5,63c16.3-24.8,19.7-60.1,6.2-93.6
	C1790.1,833.4,1763,810.3,1734.1,803.8z"/>
<line class="st0" x1="1736.2" y1="797.7" x2="1984" y2="797.7"/>
<path class="st1" d="M1989,634.9c-28.9,6.5-55.9,29.6-69.4,63.1c-13.5,33.5-10,68.8,6.4,93.6c28.9-6.5,55.9-29.6,69.4-63.1
	C2008.8,695,2005.3,659.6,1989,634.9z"/>
<path class="st2" d="M1925.8,803.8c-16.3,24.8-19.7,60.1-6.2,93.6c13.5,33.5,40.5,56.5,69.5,63c16.3-24.8,19.7-60.1,6.2-93.6
	C1981.8,833.4,1954.8,810.3,1925.8,803.8z"/>
<line class="st0" x1="1928.2" y1="797.7" x2="2175.9" y2="797.7"/>
<path class="st1" d="M2180.9,634.9c-28.9,6.5-55.9,29.6-69.4,63.1c-13.5,33.5-10,68.8,6.4,93.6c28.9-6.5,55.9-29.6,69.4-63.1
	C2200.7,695,2197.2,659.7,2180.9,634.9z"/>
<path class="st2" d="M2117.7,803.8c-16.3,24.8-19.7,60.1-6.2,93.6s40.5,56.5,69.5,63c16.3-24.8,19.7-60.1,6.2-93.6
	C2173.7,833.4,2146.7,810.3,2117.7,803.8z"/>
<line class="st0" x1="2136.5" y1="797.7" x2="2384.3" y2="797.7"/>
<path class="st1" d="M2389.3,634.9c-28.9,6.5-55.9,29.6-69.4,63.1c-13.5,33.5-10,68.8,6.4,93.6c28.9-6.5,55.9-29.6,69.4-63.1
	C2409.1,695,2405.6,659.7,2389.3,634.9z"/>
<path class="st2" d="M2326.1,803.8c-16.3,24.8-19.7,60.1-6.2,93.6s40.5,56.5,69.5,63c16.3-24.8,19.7-60.1,6.2-93.6
	C2382.1,833.4,2355,810.3,2326.1,803.8z"/>
<line class="st0" x1="2357.7" y1="797.7" x2="2605.5" y2="797.7"/>
<path class="st1" d="M2610.5,634.9c-28.9,6.5-55.9,29.6-69.4,63.1c-13.5,33.5-10,68.8,6.4,93.6c28.9-6.5,55.9-29.6,69.4-63.1
	C2630.3,695,2626.8,659.6,2610.5,634.9z"/>
<path class="st2" d="M2547.3,803.8c-16.3,24.8-19.7,60.1-6.2,93.6c13.5,33.5,40.5,56.5,69.5,63c16.3-24.8,19.7-60.1,6.2-93.6
	S2576.2,810.3,2547.3,803.8z"/>
<line class="st0" x1="2549.5" y1="797.7" x2="2797.2" y2="797.7"/>
<path class="st1" d="M2802.2,634.9c-28.9,6.5-55.9,29.6-69.4,63.1c-13.5,33.5-10,68.8,6.4,93.6c28.9-6.5,55.9-29.6,69.4-63.1
	S2818.5,659.6,2802.2,634.9z"/>
<path class="st2" d="M2739,803.8c-16.3,24.8-19.7,60.1-6.2,93.6s40.5,56.5,69.5,63c16.3-24.8,19.7-60.1,6.2-93.6
	C2795,833.4,2768,810.3,2739,803.8z"/>
<line class="st0" x1="2741.4" y1="797.7" x2="2989.2" y2="797.7"/>
<path class="st1" d="M2994.1,634.9c-28.9,6.5-55.9,29.6-69.4,63.1c-13.5,33.5-10,68.8,6.4,93.6c28.9-6.5,55.9-29.6,69.4-63.1
	C3013.9,695,3010.4,659.7,2994.1,634.9z"/>
<path class="st2" d="M2930.9,803.8c-16.3,24.8-19.7,60.1-6.2,93.6c13.5,33.5,40.5,56.5,69.5,63c16.3-24.8,19.7-60.1,6.2-93.6
	C2986.9,833.4,2959.9,810.3,2930.9,803.8z"/>
<line class="st0" x1="2949.7" y1="797.7" x2="3197.5" y2="797.7"/>
<path class="st1" d="M3202.5,634.9c-28.9,6.5-55.9,29.6-69.4,63.1c-13.5,33.5-10,68.8,6.4,93.6c28.9-6.5,55.9-29.6,69.4-63.1
	C3222.3,695,3218.8,659.7,3202.5,634.9z"/>
<path class="st2" d="M3139.3,803.8c-16.3,24.8-19.7,60.1-6.2,93.6s40.5,56.5,69.5,63c16.3-24.8,19.7-60.1,6.2-93.6
	C3195.3,833.4,3168.3,810.3,3139.3,803.8z"/>
<line class="st0" x1="3321.4" y1="797.7" x2="3569.2" y2="797.7"/>
<path class="st1" d="M3403.2,634.9c-28.9,6.5-55.9,29.6-69.4,63.1c-13.5,33.5-10,68.8,6.4,93.6c28.9-6.5,55.9-29.6,69.4-63.1
	S3419.6,659.6,3403.2,634.9z"/>
<path class="st2" d="M3340.1,803.8c-16.3,24.8-19.7,60.1-6.2,93.6s40.5,56.5,69.5,63c16.3-24.8,19.7-60.1,6.2-93.6
	C3396,833.4,3369,810.3,3340.1,803.8z"/>
<path class="st1" d="M3574.1,634.9c-28.9,6.5-55.9,29.6-69.4,63.1c-13.5,33.5-10,68.8,6.4,93.6c28.9-6.5,55.9-29.6,69.4-63.1
	S3590.5,659.6,3574.1,634.9z"/>
<path class="st2" d="M3511,803.8c-16.3,24.8-19.7,60.1-6.2,93.6s40.5,56.5,69.5,63c16.3-24.8,19.7-60.1,6.2-93.6
	C3567,833.4,3539.9,810.3,3511,803.8z"/>
<line class="st0" x1="3513.1" y1="797.7" x2="3760.9" y2="797.7"/>
<path class="st1" d="M3765.9,634.9c-28.9,6.5-55.9,29.6-69.4,63.1c-13.5,33.5-10,68.8,6.4,93.6c28.9-6.5,55.9-29.6,69.4-63.1
	S3782.2,659.6,3765.9,634.9z"/>
<path class="st2" d="M3702.7,803.8c-16.3,24.8-19.7,60.1-6.2,93.6s40.5,56.5,69.5,63c16.3-24.8,19.7-60.1,6.2-93.6
	C3758.7,833.4,3731.7,810.3,3702.7,803.8z"/>
<line class="st0" x1="3705.1" y1="797.7" x2="3952.8" y2="797.7"/>
<line class="st0" x1="3197.5" y1="797.7" x2="3445.3" y2="797.7"/>
<path class="st1" d="M3957.8,634.9c-28.9,6.5-55.9,29.6-69.4,63.1s-10,68.8,6.4,93.6c28.9-6.5,55.9-29.6,69.4-63.1
	C3977.6,695,3974.1,659.7,3957.8,634.9z"/>
<path class="st2" d="M3894.6,803.8c-16.3,24.8-19.7,60.1-6.2,93.6c13.5,33.5,40.5,56.5,69.5,63c16.3-24.8,19.7-60.1,6.2-93.6
	S3923.6,810.3,3894.6,803.8z"/>
<line class="st0" x1="3913.4" y1="797.7" x2="4161.2" y2="797.7"/>
<path class="st1" d="M4166.1,634.9c-28.9,6.5-55.9,29.6-69.4,63.1c-13.5,33.5-10,68.8,6.4,93.6c28.9-6.5,55.9-29.6,69.4-63.1
	C4186,695,4182.5,659.7,4166.1,634.9z"/>
<path class="st2" d="M4103,803.8c-16.3,24.8-19.7,60.1-6.2,93.6c13.5,33.5,40.5,56.5,69.5,63c16.3-24.8,19.7-60.1,6.2-93.6
	S4131.9,810.3,4103,803.8z"/>
<line class="st0" x1="4120.2" y1="797.7" x2="4367.9" y2="797.7"/>
<path class="st1" d="M4372.9,634.9c-28.9,6.5-55.9,29.6-69.4,63.1c-13.5,33.5-10,68.8,6.4,93.6c28.9-6.5,55.9-29.6,69.4-63.1
	S4389.2,659.6,4372.9,634.9z"/>
<path class="st2" d="M4309.7,803.8c-16.3,24.8-19.7,60.1-6.2,93.6c13.5,33.5,40.5,56.5,69.5,63c16.3-24.8,19.7-60.1,6.2-93.6
	S4338.7,810.3,4309.7,803.8z"/>
<line class="st0" x1="4311.9" y1="797.7" x2="4559.7" y2="797.7"/>
<path class="st1" d="M4564.6,634.9c-28.9,6.5-55.9,29.6-69.4,63.1c-13.5,33.5-10,68.8,6.4,93.6c28.9-6.5,55.9-29.6,69.4-63.1
	C4584.5,695,4581,659.6,4564.6,634.9z"/>
<path class="st2" d="M4501.5,803.8c-16.3,24.8-19.7,60.1-6.2,93.6c13.5,33.5,40.5,56.5,69.5,63c16.3-24.8,19.7-60.1,6.2-93.6
	C4557.4,833.4,4530.4,810.3,4501.5,803.8z"/>
<line class="st0" x1="4503.8" y1="797.7" x2="4751.6" y2="797.7"/>
<path class="st1" d="M4756.5,634.9c-28.9,6.5-55.9,29.6-69.4,63.1c-13.5,33.5-10,68.8,6.4,93.6c28.9-6.5,55.9-29.6,69.4-63.1
	C4776.4,695,4772.9,659.7,4756.5,634.9z"/>
<path class="st2" d="M4693.4,803.8c-16.3,24.8-19.7,60.1-6.2,93.6c13.5,33.5,40.5,56.5,69.5,63c16.3-24.8,19.7-60.1,6.2-93.6
	C4749.4,833.4,4722.3,810.3,4693.4,803.8z"/>
<line class="st0" x1="4712.2" y1="797.7" x2="4960" y2="797.7"/>
<path class="st1" d="M4964.9,634.9c-28.9,6.5-55.9,29.6-69.4,63.1c-13.5,33.5-10,68.8,6.4,93.6c28.9-6.5,55.9-29.6,69.4-63.1
	C4984.7,695,4981.3,659.7,4964.9,634.9z"/>
<path class="st2" d="M4901.8,803.8c-16.3,24.8-19.7,60.1-6.2,93.6s40.5,56.5,69.5,63c16.3-24.8,19.7-60.1,6.2-93.6
	C4957.7,833.4,4930.7,810.3,4901.8,803.8z"/>
<line class="st0" x1="4933.4" y1="797.7" x2="5181.2" y2="797.7"/>
<path class="st1" d="M5186.1,634.9c-28.9,6.5-55.9,29.6-69.4,63.1c-13.5,33.5-10,68.8,6.4,93.6c28.9-6.5,55.9-29.6,69.4-63.1
	C5205.9,695,5202.5,659.6,5186.1,634.9z"/>
<path class="st2" d="M5123,803.8c-16.3,24.8-19.7,60.1-6.2,93.6c13.5,33.5,40.5,56.5,69.5,63c16.3-24.8,19.7-60.1,6.2-93.6
	C5178.9,833.4,5151.9,810.3,5123,803.8z"/>
<line class="st0" x1="5125.1" y1="797.7" x2="5372.9" y2="797.7"/>
<path class="st1" d="M5377.8,634.9c-28.9,6.5-55.9,29.6-69.4,63.1c-13.5,33.5-10,68.8,6.4,93.6c28.9-6.5,55.9-29.6,69.4-63.1
	S5394.2,659.6,5377.8,634.9z"/>
<path class="st2" d="M5314.7,803.8c-16.3,24.8-19.7,60.1-6.2,93.6s40.5,56.5,69.5,63c16.3-24.8,19.7-60.1,6.2-93.6
	C5370.7,833.4,5343.6,810.3,5314.7,803.8z"/>
<line class="st0" x1="5317" y1="797.7" x2="5564.8" y2="797.7"/>
<path class="st1" d="M5569.8,634.9c-28.9,6.5-55.9,29.6-69.4,63.1c-13.5,33.5-10,68.8,6.4,93.6c28.9-6.5,55.9-29.6,69.4-63.1
	C5589.6,695,5586.1,659.7,5569.8,634.9z"/>
<path class="st2" d="M5506.6,803.8c-16.3,24.8-19.7,60.1-6.2,93.6c13.5,33.5,40.5,56.5,69.5,63c16.3-24.8,19.7-60.1,6.2-93.6
	C5562.6,833.4,5535.5,810.3,5506.6,803.8z"/>
<path class="st3" d="M5525.4,797.7h247.8c0,0,295.8,7.1,295.8,375.5s0,422.2,0,422.2"/>
<path class="st1" d="M5778.1,634.9c-28.9,6.5-55.9,29.6-69.4,63.1s-10,68.8,6.4,93.6c28.9-6.5,55.9-29.6,69.4-63.1
	C5798,695,5794.5,659.7,5778.1,634.9z"/>
<path class="st2" d="M5715,803.8c-16.3,24.8-19.7,60.1-6.2,93.6c13.5,33.5,40.5,56.5,69.5,63c16.3-24.8,19.7-60.1,6.2-93.6
	S5743.9,810.3,5715,803.8z"/>
<path class="st1" d="M6010.6,703.7c-29.5-3.2-62.5,10-86.1,37.3s-31.7,61.9-24.2,90.6c29.5,3.2,62.5-10,86.1-37.3
	S6018.1,732.4,6010.6,703.7z"/>
<path class="st2" d="M5896.3,843.2c-23.4,18.2-38.1,50.5-36.1,86.6c2,36,20.1,66.6,45.4,82.1c23.4-18.2,38.1-50.5,36.1-86.6
	C5939.8,889.2,5921.6,858.7,5896.3,843.2z"/>
<path class="st1" d="M6184.6,896.6c-25.9-14.5-61.4-15.5-93.8,0.4c-32.4,15.8-53.5,44.4-58,73.7c25.9,14.5,61.4,15.5,93.8-0.4
	C6159.1,954.5,6180.2,925.9,6184.6,896.6z"/>
<path class="st2" d="M6024.6,979.7c-28.7,7.5-54.9,31.4-67.3,65.3s-7.7,69.1,9.4,93.3c28.7-7.5,54.9-31.4,67.3-65.3
	C6046.3,1039.2,6041.7,1003.9,6024.6,979.7z"/>
<path class="st1" d="M6242.8,1162.9c-17.3-24.1-49-40.1-85.1-39.5c-36.1,0.6-67.3,17.5-83.8,42.2c17.3,24.1,49,40.1,85.1,39.5
	C6195.1,1204.5,6226.3,1187.6,6242.8,1162.9z"/>
<path class="st2" d="M6062.6,1170.3c-29.2-5.4-63.1,5.1-88.7,30.6s-36.3,59.3-31.1,88.5c29.2,5.4,63.1-5.1,88.7-30.6
	C6057.1,1233.3,6067.8,1199.5,6062.6,1170.3z"/>
<path class="st1" d="M6241.7,1395.1c-11-27.6-38-50.6-73.1-58.7c-35.2-8.1-69.5,0.9-91.4,20.9c11,27.6,38,50.6,73.1,58.7
	C6185.5,1424.1,6219.8,1415.1,6241.7,1395.1z"/>
<path class="st2" d="M6065,1359c-27-12.2-62.5-10.1-93.4,8.4s-49.5,48.9-51.4,78.5c27,12.2,62.5,10.1,93.4-8.4
	C6044.6,1418.9,6063.1,1388.7,6065,1359z"/>
<path class="st1" d="M6235.9,1592.2c-8.1-28.5-32.7-54.2-66.8-65.8c-34.2-11.6-69.3-6.2-93.1,11.5c8.1,28.5,32.7,54.2,66.8,65.8
	C6177,1615.3,6212.1,1609.8,6235.9,1592.2z"/>
<path class="st2" d="M6063.8,1538.5c-25.6-14.9-61.1-16.4-93.8-1c-32.7,15.4-54.2,43.6-59,72.9c25.6,14.9,61.1,16.4,93.8,1
	C6037.4,1596,6058.9,1567.7,6063.8,1538.5z"/>
<path class="st3" d="M699.7,797.7H452c0,0-295.8-7.1-295.8-375.5s0-422.2,0-422.2"/>
<g>
</g>
<g>
</g>
<g>
</g>
<g>
</g>
<g>
</g>
</svg>
