<?xml version="1.0" encoding="utf-8"?>
<!-- Generator: Adobe Illustrator 21.0.0, SVG Export Plug-In . SVG Version: 6.00 Build 0)  -->
<svg version="1.1" id="Layer_1" xmlns="http://www.w3.org/2000/svg" xmlns:xlink="http://www.w3.org/1999/xlink" x="0px" y="0px"
	 viewBox="0 0 325.5 1965.9" style="enable-background:new 0 0 325.5 1965.9;" xml:space="preserve">
<style type="text/css">
	.st0{fill:#28B485;}
	.st1{fill:#55C57A;}
	.st2{fill:#55C57A;stroke:#55C57A;stroke-width:14;stroke-miterlimit:10;}
</style>
<path class="st0" d="M325.5,147.5c-6.5-28.9-29.6-55.9-63.1-69.4s-68.8-10-93.6,6.4c6.5,28.9,29.6,55.9,63.1,69.4
	S300.8,163.9,325.5,147.5z"/>
<path class="st1" d="M156.6,84.4C131.8,68.1,96.5,64.6,63,78.1S6.5,118.7,0,147.6c24.8,16.3,60.1,19.7,93.6,6.2
	S150.1,113.3,156.6,84.4z"/>
<polyline class="st2" points="162.8,334.3 162.8,86.5 162.8,16.2 162.8,0 "/>
<path class="st0" d="M325.5,339.3c-6.5-28.9-29.6-55.9-63.1-69.4c-33.5-13.5-68.8-10-93.6,6.4c6.5,28.9,29.6,55.9,63.1,69.4
	C265.4,359.1,300.8,355.6,325.5,339.3z"/>
<path class="st1" d="M156.6,276.1c-24.8-16.3-60.1-19.7-93.6-6.2S6.5,310.4,0,339.4c24.8,16.3,60.1,19.7,93.6,6.2
	S150.1,305,156.6,276.1z"/>
<line class="st2" x1="162.7" y1="278.4" x2="162.7" y2="526.2"/>
<path class="st0" d="M325.5,531.2c-6.5-28.9-29.6-55.9-63.1-69.4c-33.5-13.5-68.8-10-93.6,6.4c6.5,28.9,29.6,55.9,63.1,69.4
	S300.8,547.5,325.5,531.2z"/>
<path class="st1" d="M156.6,468c-24.8-16.3-60.1-19.7-93.6-6.2S6.5,502.3,0,531.3c24.8,16.3,60.1,19.7,93.6,6.2S150.1,497,156.6,468
	z"/>
<line class="st2" x1="162.7" y1="486.8" x2="162.7" y2="734.6"/>
<path class="st0" d="M325.5,739.5c-6.5-28.9-29.6-55.9-63.1-69.4c-33.5-13.5-68.8-10-93.6,6.4c6.5,28.9,29.6,55.9,63.1,69.4
	S300.8,755.9,325.5,739.5z"/>
<path class="st1" d="M156.6,676.4c-24.8-16.3-60.1-19.7-93.6-6.2S6.5,710.7,0,739.6c24.8,16.3,60.1,19.7,93.6,6.2
	S150.1,705.3,156.6,676.4z"/>
<line class="st2" x1="162.8" y1="693.6" x2="162.8" y2="941.3"/>
<path class="st0" d="M325.5,946.3c-6.5-28.9-29.6-55.9-63.1-69.4c-33.5-13.5-68.8-10-93.6,6.4c6.5,28.9,29.6,55.9,63.1,69.4
	S300.8,962.6,325.5,946.3z"/>
<path class="st1" d="M156.6,883.1c-24.8-16.3-60.1-19.7-93.6-6.2S6.5,917.5,0,946.4c24.8,16.3,60.1,19.7,93.6,6.2
	S150.1,912.1,156.6,883.1z"/>
<line class="st2" x1="162.8" y1="885.3" x2="162.8" y2="1133.1"/>
<path class="st0" d="M325.5,1138c-6.5-28.9-29.6-55.9-63.1-69.4c-33.5-13.5-68.8-10-93.6,6.4c6.5,28.9,29.6,55.9,63.1,69.4
	S300.8,1154.4,325.5,1138z"/>
<path class="st1" d="M156.6,1074.9c-24.8-16.3-60.1-19.7-93.6-6.2c-33.5,13.5-56.5,40.5-63,69.5c24.8,16.3,60.1,19.7,93.6,6.2
	C127.1,1130.8,150.1,1103.8,156.6,1074.9z"/>
<line class="st2" x1="162.7" y1="1077.2" x2="162.7" y2="1325"/>
<path class="st0" d="M325.5,1329.9c-6.5-28.9-29.6-55.9-63.1-69.4c-33.5-13.5-68.8-10-93.6,6.4c6.5,28.9,29.6,55.9,63.1,69.4
	C265.4,1349.8,300.8,1346.3,325.5,1329.9z"/>
<path class="st1" d="M156.6,1266.8c-24.8-16.3-60.1-19.7-93.6-6.2c-33.5,13.5-56.5,40.5-63,69.5c24.8,16.3,60.1,19.7,93.6,6.2
	C127.1,1322.7,150.1,1295.7,156.6,1266.8z"/>
<line class="st2" x1="162.7" y1="1285.6" x2="162.7" y2="1533.3"/>
<path class="st0" d="M325.5,1538.3c-6.5-28.9-29.6-55.9-63.1-69.4c-33.5-13.5-68.8-10-93.6,6.4c6.5,28.9,29.6,55.9,63.1,69.4
	C265.4,1558.1,300.8,1554.6,325.5,1538.3z"/>
<path class="st1" d="M156.6,1475.1c-24.8-16.3-60.1-19.7-93.6-6.2c-33.5,13.5-56.5,40.5-63,69.5c24.8,16.3,60.1,19.7,93.6,6.2
	C127.1,1531.1,150.1,1504.1,156.6,1475.1z"/>
<line class="st2" x1="162.8" y1="1506.8" x2="162.8" y2="1754.6"/>
<path class="st0" d="M325.5,1759.5c-6.5-28.9-29.6-55.9-63.1-69.4c-33.5-13.5-68.8-10-93.6,6.4c6.5,28.9,29.6,55.9,63.1,69.4
	S300.8,1775.8,325.5,1759.5z"/>
<path class="st1" d="M156.6,1696.3c-24.8-16.3-60.1-19.7-93.6-6.2c-33.5,13.5-56.5,40.5-63,69.5c24.8,16.3,60.1,19.7,93.6,6.2
	C127.1,1752.3,150.1,1725.3,156.6,1696.3z"/>
<line class="st2" x1="162.8" y1="1698.5" x2="162.8" y2="1946.3"/>
<path class="st0" d="M325.5,1951.2c-6.5-28.9-29.6-55.9-63.1-69.4s-68.8-10-93.6,6.4c6.5,28.9,29.6,55.9,63.1,69.4
	C265.4,1971.1,300.8,1967.6,325.5,1951.2z"/>
<path class="st1" d="M156.6,1888.1c-24.8-16.3-60.1-19.7-93.6-6.2c-33.5,13.5-56.5,40.5-63,69.5c24.8,16.3,60.1,19.7,93.6,6.2
	C127.1,1944,150.1,1917,156.6,1888.1z"/>
<g>
</g>
<g>
</g>
<g>
</g>
<g>
</g>
<g>
</g>
</svg>
